<?xml version="1.0" encoding="UTF-8"?>
<svg xmlns="http://www.w3.org/2000/svg" id="Layer_1" data-name="Layer 1" viewBox="0 0 24 24" width="512" height="512"><path d="M22,15.5H12a.49971.49971,0,0,0-.5.5A3.50424,3.50424,0,0,1,8,19.5,1.50164,1.50164,0,0,1,6.5,18V6a2.4963,2.4963,0,0,0-.50122-1.5H16A1.50164,1.50164,0,0,1,17.5,6v8h1V6A2.50231,2.50231,0,0,0,16,3.5H4c-.02826,0-.30371.01587-.416.03418A2.5794,2.5794,0,0,0,1.5,6.10742,2.3952,2.3952,0,0,0,3.89258,8.5H5.5V18A2.50231,2.50231,0,0,0,8,20.5H18A4.50491,4.50491,0,0,0,22.5,16,.49971.49971,0,0,0,22,15.5ZM5.5,7.5H3.89258A1.39453,1.39453,0,0,1,2.5,6.10742,1.57407,1.57407,0,0,1,3.74414,4.52051,1.50205,1.50205,0,0,1,5.5,6ZM18,19.5H10.8252a4.50158,4.50158,0,0,0,1.64746-3h8.99218A3.50647,3.50647,0,0,1,18,19.5Z"/></svg>
