<svg id="Layer_1" enable-background="new 0 0 54 54" height="512" viewBox="0 0 54 54" width="512" xmlns="http://www.w3.org/2000/svg"><g><path d="m15 14h24c.5522461 0 1-.4472656 1-1v-6c0-.5527344-.4477539-1-1-1h-24c-.5522461 0-1 .4472656-1 1v6c0 .5527344.4477539 1 1 1zm1-6h22v4h-22z"/><path d="m15 19h24c.5522461 0 1-.4472656 1-1s-.4477539-1-1-1h-24c-.5522461 0-1 .4472656-1 1s.4477539 1 1 1z"/><path d="m15 24h24c.5522461 0 1-.4472656 1-1s-.4477539-1-1-1h-24c-.5522461 0-1 .4472656-1 1s.4477539 1 1 1z"/><path d="m15 29h24c.5522461 0 1-.4472656 1-1s-.4477539-1-1-1h-24c-.5522461 0-1 .4472656-1 1s.4477539 1 1 1z"/><path d="m15 34h24c.5522461 0 1-.4472656 1-1s-.4477539-1-1-1h-24c-.5522461 0-1 .4472656-1 1s.4477539 1 1 1z"/><path d="m15 39h24c.5522461 0 1-.4472656 1-1s-.4477539-1-1-1h-24c-.5522461 0-1 .4472656-1 1s.4477539 1 1 1z"/><path d="m48 43h-3v-37c0-2.7568359-2.2431641-5-5-5h-34c-2.7568359 0-5 2.2431641-5 5v4c0 .5527344.4477539 1 1 1h7v37c0 2.7568359 2.2431641 5 5 5h34c2.7568359 0 5-2.2431641 5-5s-2.2431641-5-5-5zm-39-34h-6v-3c0-1.6542969 1.3457031-3 3-3s3 1.3457031 3 3zm5 42c-1.6542969 0-3-1.3457031-3-3v-42c0-1.1299438-.3909912-2.1617432-1.0255737-3h30.0255737c1.6542969 0 3 1.3457031 3 3v37h-29c-.5522461 0-1 .4472656-1 1s.4477539 1 1 1c1.6542969 0 3 1.3457031 3 3s-1.3457031 3-3 3zm34 0h-30.0024414c.6289062-.8359375 1.0024414-1.875 1.0024414-3s-.3735352-2.1640625-1.0024414-3h30.0024414c1.6542969 0 3 1.3457031 3 3s-1.3457031 3-3 3z"/></g></svg>