<svg id="Layer_1" enable-background="new 0 0 64 64" height="512" viewBox="0 0 64 64" width="512" xmlns="http://www.w3.org/2000/svg"><g><path d="m5.44 61.52v2.54h53.12v-2.54c0-11.94-7.92-22.06-18.78-25.39 6.53-2.97 11.09-9.54 11.09-17.17-.01-10.4-8.47-18.86-18.87-18.86s-18.86 8.46-18.86 18.86c0 7.63 4.56 14.2 11.09 17.17-10.87 3.33-18.79 13.45-18.79 25.39zm10.56-42.56c0-8.82 7.18-16 16-16s16 7.18 16 16-7.18 16-16 16-16-7.17-16-16zm16 18.87c12.96 0 23.52 10.46 23.7 23.38h-47.4c.18-12.93 10.74-23.38 23.7-23.38z"/></g></svg>